# MagicaVoxel @ Ephtracy

# group
o 

# material
mtllib Player.mtl
usemtl palette

# normals
vn -1 0 0
vn 1 0 0
vn 0 0 1
vn 0 0 -1
vn 0 -1 0
vn 0 1 0

# texcoords
vt 0.982422 0.5
vt 0.986328 0.5
vt 0.990234 0.5

# verts
v -0.3 0 0.3
v -0.3 0 -0.3
v -0.3 0.6 0.3
v -0.3 0.6 -0.3
v 0.3 0 0.3
v 0.3 0 -0.3
v 0.3 0.6 0.3
v 0.3 0.6 -0.3
v -0.3 0 0.3
v -0.3 0.6 0.3
v 0.3 0 0.3
v 0.3 0.6 0.3
v -0.3 0 -0.3
v -0.3 0.6 -0.3
v 0.3 0 -0.3
v 0.3 0.6 -0.3
v -0.3 0 0.3
v 0.3 0 0.3
v -0.3 0 -0.3
v 0.3 0 -0.3
v -0.3 0.6 0.3
v 0.3 0.6 0.3
v -0.1 0.6 0.2
v 0.1 0.6 0.2
v -0.1 0.6 0.1
v 0.1 0.6 0.1
v -0.1 0.6 0
v 0.1 0.6 0
v -0.2 0.6 -0.1
v -0.1 0.6 -0.1
v 0.1 0.6 -0.1
v 0.2 0.6 -0.1
v -0.2 0.6 -0.2
v -0.1 0.6 -0.2
v 0.1 0.6 -0.2
v 0.2 0.6 -0.2
v -0.3 0.6 -0.3
v 0.3 0.6 -0.3

# faces
f 3/1/1 2/1/1 1/1/1
f 4/1/1 2/1/1 3/1/1
f 5/1/2 6/1/2 7/1/2
f 7/1/2 6/1/2 8/1/2
f 11/1/3 10/1/3 9/1/3
f 12/1/3 10/1/3 11/1/3
f 13/1/4 14/1/4 15/1/4
f 15/1/4 14/1/4 16/1/4
f 19/1/5 18/1/5 17/1/5
f 20/1/5 18/1/5 19/1/5
f 21/1/6 22/1/6 23/1/6
f 23/1/6 22/1/6 24/1/6
f 21/1/6 23/1/6 25/1/6
f 23/3/6 24/3/6 25/3/6
f 24/1/6 22/1/6 26/1/6
f 25/3/6 24/3/6 26/3/6
f 21/1/6 25/1/6 27/1/6
f 25/2/6 26/2/6 27/2/6
f 26/1/6 22/1/6 28/1/6
f 27/2/6 26/2/6 28/2/6
f 21/1/6 27/1/6 29/1/6
f 27/1/6 28/1/6 29/1/6
f 29/1/6 28/1/6 30/1/6
f 28/1/6 22/1/6 31/1/6
f 30/1/6 28/1/6 31/1/6
f 31/1/6 22/1/6 32/1/6
f 29/2/6 30/2/6 33/2/6
f 21/1/6 29/1/6 33/1/6
f 30/1/6 31/1/6 34/1/6
f 33/2/6 30/2/6 34/2/6
f 31/2/6 32/2/6 35/2/6
f 34/1/6 31/1/6 35/1/6
f 32/1/6 22/1/6 36/1/6
f 35/2/6 32/2/6 36/2/6
f 34/1/6 35/1/6 37/1/6
f 33/1/6 34/1/6 37/1/6
f 35/1/6 36/1/6 37/1/6
f 21/1/6 33/1/6 37/1/6
f 36/1/6 22/1/6 38/1/6
f 37/1/6 36/1/6 38/1/6
